<svg width="500px" height="500px" viewBox="0 0 200 200">
 <style>
    .small { font: 10px sans-serif; }
    .heavy { font: bold 30px sans-serif; }
  </style>

  <defs>
    <clipPath id="myCircle">
      <circle cx="50" cy="50" r="45" style="fill: pink;"/>  
    </clipPath>
  </defs>
  <image width="100" height="100" xlink:href="https://i.ibb.co/D5KL6Zv/png.png" style="clip-path=url(#myCircle)" />

  
  <!-- itt kell majd a rotatebe az elso szoget valtoztatni az oranak -->
  <g style="stroke: lightblue; fill: lightblue;" transform="rotate(30,50,50)">
    <line x1="50" y1="31" x2="50" y2="50"/>
    <polygon points="50 30, 48 35, 52 35"/>
  </g>

  <!-- itt kell majd a rotatebe az elso szoget valtoztatni a percnek -->
  <g style="stroke: black; fill: black;" transform="rotate(60,50,50)">
    <line x1="50" y1="50" x2="50" y2="25"/>
    <polygon points="50 20, 48 25, 52 25"/>
  </g>

  <!-- itt kell majd a rotatebe az elso szoget valtoztatni a masodpercnek -->
  <g style="stroke: red; fill: red;" transform="rotate(48,50,50)">
    <line x1="50" y1="50" x2="50" y2="20"/>
    <polygon points="50 17, 49 20, 51 20"/>
  </g>

  <!-- azert van itt alul mert layerkent viselkedik -->
  <circle cx="50" cy="50" r="2" style="fill: black;"/>

  <g style="stroke: black;" transform="rotate(0,50,50)">
    <text x="45" y="15" class="small">12</text>
  </g>
  <g style="stroke: black;" transform="rotate(0,50,50)">
    <text x="47" y="90" class="small">6</text>
  </g>
  <g style="stroke: black;" transform="rotate(0,50,50)">
    <text x="85" y="53" class="small">3</text>
  </g>
  <g style="stroke: black;" transform="rotate(0,50,50)">
    <text x="10" y="53" class="small">9</text>
  </g>
  <g style="stroke: black;" transform="rotate(30,50,50) rotate(-30,47,17)">
    <text x="50" y="17" class="small">1</text>
  </g>
  <g style="stroke: black;" transform="rotate(60,50,50) rotate(-60,47,16)">
    <text x="49" y="19" class="small">2</text>
  </g>
  <g style="stroke: black;" transform="rotate(60,50,50) rotate(-60,47,16)">
    <text x="49" y="58" class="small">4</text>
  </g>
  <g style="stroke: black;" transform="rotate(60,50,50) rotate(-60,47,16)">
    <text x="36" y="71" class="small">5</text>
  </g>
  <g style="stroke: black;" transform="rotate(60,50,50) rotate(-60,47,16)">
    <text x="-4" y="71" class="small">7</text>
  </g>
  <g style="stroke: black;" transform="rotate(60,50,50) rotate(-60,47,16)">
    <text x="-17" y="58" class="small">8</text>
  </g>
  <g style="stroke: black;" transform="rotate(60,50,50) rotate(-60,47,16)">
    <text x="-19" y="20" class="small">10</text>
  </g>
  <g style="stroke: black;" transform="rotate(60,50,50) rotate(-60,47,16)">
    <text x="-6" y="6" class="small">11</text>
  </g>

  <g style="stroke: black;" transform="rotate(6,50,50)">
    <line x1="50" y1="1" x2="50" y2="5"/>
  </g>
  <g style="stroke: black;" transform="rotate(12,50,50)">
    <line x1="50" y1="1" x2="50" y2="5"/>
  </g>
  <g style="stroke: black;" transform="rotate(18,50,50)">
    <line x1="50" y1="1" x2="50" y2="5"/>
  </g>
  <g style="stroke: black;" transform="rotate(24,50,50)">
    <line x1="50" y1="1" x2="50" y2="5"/>
  </g>
  <g style="stroke: black;" transform="rotate(30,50,50)">
    <line x1="50" y1="1" x2="50" y2="5"/>
  </g>
  <g style="stroke: black;" transform="rotate(36,50,50)">
    <line x1="50" y1="1" x2="50" y2="5"/>
  </g>
  <g style="stroke: black;" transform="rotate(42,50,50)">
    <line x1="50" y1="1" x2="50" y2="5"/>
  </g>
  <g style="stroke: black;" transform="rotate(48,50,50)">
    <line x1="50" y1="1" x2="50" y2="5"/>
  </g>
  <g style="stroke: black;" transform="rotate(54,50,50)">
    <line x1="50" y1="1" x2="50" y2="5"/>
  </g>
  <g style="stroke: black;" transform="rotate(60,50,50)">
    <line x1="50" y1="1" x2="50" y2="5"/>
  </g>
  <g style="stroke: black;" transform="rotate(66,50,50)">
    <line x1="50" y1="1" x2="50" y2="5"/>
  </g>
  <g style="stroke: black;" transform="rotate(72,50,50)">
    <line x1="50" y1="1" x2="50" y2="5"/>
  </g>
  <g style="stroke: black;" transform="rotate(78,50,50)">
    <line x1="50" y1="1" x2="50" y2="5"/>
  </g>
  <g style="stroke: black;" transform="rotate(84,50,50)">
    <line x1="50" y1="1" x2="50" y2="5"/>
  </g>
  <g style="stroke: black;" transform="rotate(90,50,50)">
    <line x1="50" y1="1" x2="50" y2="5"/>
  </g>
  <g style="stroke: black;" transform="rotate(96,50,50)">
    <line x1="50" y1="1" x2="50" y2="5"/>
  </g>
  <g style="stroke: black;" transform="rotate(102,50,50)">
    <line x1="50" y1="1" x2="50" y2="5"/>
  </g>
  <g style="stroke: black;" transform="rotate(108,50,50)">
    <line x1="50" y1="1" x2="50" y2="5"/>
  </g>
  <g style="stroke: black;" transform="rotate(114,50,50)">
    <line x1="50" y1="1" x2="50" y2="5"/>
  </g>
  <g style="stroke: black;" transform="rotate(120,50,50)">
    <line x1="50" y1="1" x2="50" y2="5"/>
  </g>
  <g style="stroke: black;" transform="rotate(126,50,50)">
    <line x1="50" y1="1" x2="50" y2="5"/>
  </g>
  <g style="stroke: black;" transform="rotate(132,50,50)">
    <line x1="50" y1="1" x2="50" y2="5"/>
  </g>
  <g style="stroke: black;" transform="rotate(138,50,50)">
    <line x1="50" y1="1" x2="50" y2="5"/>
  </g>
  <g style="stroke: black;" transform="rotate(144,50,50)">
    <line x1="50" y1="1" x2="50" y2="5"/>
  </g>
  <g style="stroke: black;" transform="rotate(150,50,50)">
    <line x1="50" y1="1" x2="50" y2="5"/>
  </g>
  <g style="stroke: black;" transform="rotate(156,50,50)">
    <line x1="50" y1="1" x2="50" y2="5"/>
  </g>
  <g style="stroke: black;" transform="rotate(162,50,50)">
    <line x1="50" y1="1" x2="50" y2="5"/>
  </g>
  <g style="stroke: black;" transform="rotate(168,50,50)">
    <line x1="50" y1="1" x2="50" y2="5"/>
  </g>
  <g style="stroke: black;" transform="rotate(174,50,50)">
    <line x1="50" y1="1" x2="50" y2="5"/>
  </g>
  <g style="stroke: black;" transform="rotate(180,50,50)">
    <line x1="50" y1="1" x2="50" y2="5"/>
  </g>
  <g style="stroke: black;" transform="rotate(186,50,50)">
    <line x1="50" y1="1" x2="50" y2="5"/>
  </g>
  <g style="stroke: black;" transform="rotate(192,50,50)">
    <line x1="50" y1="1" x2="50" y2="5"/>
  </g>
  <g style="stroke: black;" transform="rotate(198,50,50)">
    <line x1="50" y1="1" x2="50" y2="5"/>
  </g>
  <g style="stroke: black;" transform="rotate(204,50,50)">
    <line x1="50" y1="1" x2="50" y2="5"/>
  </g>
  <g style="stroke: black;" transform="rotate(210,50,50)">
    <line x1="50" y1="1" x2="50" y2="5"/>
  </g>
  <g style="stroke: black;" transform="rotate(216,50,50)">
    <line x1="50" y1="1" x2="50" y2="5"/>
  </g>
  <g style="stroke: black;" transform="rotate(222,50,50)">
    <line x1="50" y1="1" x2="50" y2="5"/>
  </g>
  <g style="stroke: black;" transform="rotate(228,50,50)">
    <line x1="50" y1="1" x2="50" y2="5"/>
  </g>
  <g style="stroke: black;" transform="rotate(234,50,50)">
    <line x1="50" y1="1" x2="50" y2="5"/>
  </g>
  <g style="stroke: black;" transform="rotate(240,50,50)">
    <line x1="50" y1="1" x2="50" y2="5"/>
  </g>
  <g style="stroke: black;" transform="rotate(246,50,50)">
    <line x1="50" y1="1" x2="50" y2="5"/>
  </g>
  <g style="stroke: black;" transform="rotate(252,50,50)">
    <line x1="50" y1="1" x2="50" y2="5"/>
  </g>
  <g style="stroke: black;" transform="rotate(258,50,50)">
    <line x1="50" y1="1" x2="50" y2="5"/>
  </g>
  <g style="stroke: black;" transform="rotate(264,50,50)">
    <line x1="50" y1="1" x2="50" y2="5"/>
  </g>
  <g style="stroke: black;" transform="rotate(270,50,50)">
    <line x1="50" y1="1" x2="50" y2="5"/>
  </g>
  <g style="stroke: black;" transform="rotate(276,50,50)">
    <line x1="50" y1="1" x2="50" y2="5"/>
  </g>
  <g style="stroke: black;" transform="rotate(282,50,50)">
    <line x1="50" y1="1" x2="50" y2="5"/>
  </g>
  <g style="stroke: black;" transform="rotate(288,50,50)">
    <line x1="50" y1="1" x2="50" y2="5"/>
  </g>
  <g style="stroke: black;" transform="rotate(294,50,50)">
    <line x1="50" y1="1" x2="50" y2="5"/>
  </g>
  <g style="stroke: black;" transform="rotate(300,50,50)">
    <line x1="50" y1="1" x2="50" y2="5"/>
  </g>
  <g style="stroke: black;" transform="rotate(306,50,50)">
    <line x1="50" y1="1" x2="50" y2="5"/>
  </g>
  <g style="stroke: black;" transform="rotate(312,50,50)">
    <line x1="50" y1="1" x2="50" y2="5"/>
  </g>
  <g style="stroke: black;" transform="rotate(318,50,50)">
    <line x1="50" y1="1" x2="50" y2="5"/>
  </g>
  <g style="stroke: black;" transform="rotate(324,50,50)">
    <line x1="50" y1="1" x2="50" y2="5"/>
  </g>
  <g style="stroke: black;" transform="rotate(330,50,50)">
    <line x1="50" y1="1" x2="50" y2="5"/>
  </g>
  <g style="stroke: black;" transform="rotate(336,50,50)">
    <line x1="50" y1="1" x2="50" y2="5"/>
  </g>
  <g style="stroke: black;" transform="rotate(342,50,50)">
    <line x1="50" y1="1" x2="50" y2="5"/>
  </g>
  <g style="stroke: black;" transform="rotate(348,50,50)">
    <line x1="50" y1="1" x2="50" y2="5"/>
  </g>
  <g style="stroke: black;" transform="rotate(354,50,50)">
    <line x1="50" y1="1" x2="50" y2="5"/>
  </g>
  <g style="stroke: black;" transform="rotate(360,50,50)">
    <line x1="50" y1="1" x2="50" y2="5"/>
  </g>
</svg>